<?xml version="1.0" standalone="no"?>
<!DOCTYPE svg PUBLIC "-//W3C//DTD SVG 20010904//EN"
 "http://www.w3.org/TR/2001/REC-SVG-20010904/DTD/svg10.dtd">
<svg version="1.0" xmlns="http://www.w3.org/2000/svg"
 width="849.000000pt" height="862.000000pt" viewBox="0 0 849.000000 862.000000"
 preserveAspectRatio="xMidYMid meet">

<g transform="translate(0.000000,862.000000) scale(0.100000,-0.100000)"
fill="#000000" stroke="none">
<path d="M3690 8610 c-1058 -79 -1988 -554 -2615 -1335 -142 -176 -315 -461
-409 -671 -280 -627 -339 -1314 -171 -1979 24 -93 64 -228 91 -300 105 -284
305 -636 504 -885 106 -132 374 -401 503 -504 591 -471 1288 -745 2053 -807
182 -14 622 -6 779 15 265 35 497 87 724 161 1193 390 2075 1335 2301 2465 46
232 55 332 54 615 -1 293 -17 434 -79 690 -302 1249 -1394 2228 -2765 2479
-288 53 -698 76 -970 56z m829 -1398 c46 -24 108 -58 137 -77 30 -19 82 -44
117 -56 151 -51 453 -236 697 -428 163 -128 225 -145 431 -116 131 18 422 85
476 110 44 20 183 37 273 33 l75 -3 3 -49 c9 -136 -44 -185 -503 -458 -198
-118 -387 -230 -420 -248 -76 -42 -112 -75 -124 -114 -6 -17 -15 -182 -21
-366 -12 -372 -20 -421 -86 -553 -63 -126 -135 -219 -289 -372 -162 -162 -308
-279 -536 -428 -285 -186 -250 -177 -685 -177 -298 0 -339 2 -409 20 -268 69
-578 284 -880 612 -129 141 -139 144 -254 90 -85 -40 -113 -50 -321 -119 -58
-19 -154 -52 -215 -73 -146 -52 -323 -80 -498 -80 -162 0 -180 8 -180 81 0 96
40 129 433 355 238 137 371 233 417 301 92 136 147 319 193 633 16 113 39 255
50 315 12 67 16 111 10 113 -16 6 -12 42 5 42 8 0 19 17 25 43 22 84 44 144
83 225 35 71 53 95 121 157 166 149 490 401 567 441 65 33 202 89 354 145
l130 49 370 -3 370 -2 84 -43z m1168 -608 c8 -21 -13 -42 -28 -27 -13 13 -5
43 11 43 6 0 13 -7 17 -16z m-3290 -250 c8 -21 -13 -42 -28 -27 -13 13 -5 43
11 43 6 0 13 -7 17 -16z m-79 -381 c5 -17 -26 -29 -40 -15 -6 6 -7 15 -3 22 9
14 37 9 43 -7z m-1 -369 c7 -20 -17 -37 -34 -23 -15 13 -6 39 13 39 8 0 17 -7
21 -16z m3500 -250 c7 -20 -17 -37 -34 -23 -15 13 -6 39 13 39 8 0 17 -7 21
-16z m120 0 c8 -21 -13 -42 -28 -27 -13 13 -5 43 11 43 6 0 13 -7 17 -16z
m-122 -204 c4 -6 1 -17 -5 -26 -15 -18 -42 0 -33 22 6 16 29 19 38 4z m-2836
-856 c-15 -18 -28 -18 -36 2 -8 20 17 36 34 22 10 -8 10 -14 2 -24z m2086
-144 c4 -6 1 -17 -5 -26 -15 -18 -42 0 -33 22 6 16 29 19 38 4z m-1955 -136
c0 -20 -30 -30 -40 -13 -11 17 7 40 26 32 8 -3 14 -12 14 -19z m1077 -200 c8
-21 -13 -42 -28 -27 -13 13 -5 43 11 43 6 0 13 -7 17 -16z m631 -131 c5 -17
-26 -29 -40 -15 -6 6 -7 15 -3 22 9 14 37 9 43 -7z m-1068 -107 c0 -3 -4 -8
-10 -11 -5 -3 -10 -1 -10 4 0 6 5 11 10 11 6 0 10 -2 10 -4z"/>
<path d="M3925 6688 c-22 -5 -49 -10 -60 -12 -12 -2 -22 -14 -27 -34 -10 -39
-28 -42 -28 -4 0 22 2 24 11 12 9 -13 10 -13 6 0 -7 27 -34 23 -42 -7 -6 -19
-9 -23 -12 -11 -5 20 -33 32 -46 19 -6 -6 -10 -24 -9 -40 0 -17 -4 -33 -9 -36
-5 -4 -9 -1 -9 5 0 7 -6 10 -14 7 -10 -4 -12 0 -8 15 4 19 2 20 -22 14 -45
-11 -74 -35 -69 -55 3 -14 -5 -22 -36 -34 -22 -9 -52 -19 -66 -21 -51 -9 -246
-199 -323 -316 -38 -56 -41 -66 -28 -76 14 -9 12 -12 -9 -22 -16 -7 -23 -17
-19 -27 4 -8 0 -17 -9 -21 -9 -3 -18 -12 -21 -20 -3 -8 -2 -12 4 -9 5 3 14 -5
21 -17 9 -19 9 -21 -2 -10 -15 14 -43 17 -35 3 4 -5 0 -12 -6 -15 -10 -5 -10
-7 0 -12 18 -9 14 -35 -10 -61 -12 -13 -16 -23 -10 -23 7 0 12 -6 12 -14 0 -8
6 -17 13 -19 9 -4 9 -8 -2 -15 -11 -8 -11 -10 0 -15 9 -4 7 -6 -5 -6 -11 -1
-16 -4 -13 -8 4 -3 2 -12 -5 -20 -6 -8 -7 -13 -2 -12 5 1 20 0 34 -1 21 -2 19
-4 -9 -9 l-34 -6 27 -15 c22 -11 29 -12 35 -1 6 9 11 10 15 2 4 -6 1 -11 -6
-11 -20 -1 35 -39 57 -41 12 0 15 -3 7 -6 -8 -3 -32 3 -53 13 -30 13 -42 15
-51 6 -9 -9 -6 -12 14 -12 14 0 32 -7 39 -16 7 -9 24 -20 37 -25 13 -5 20 -13
17 -19 -4 -6 -10 -6 -18 0 -49 41 -62 50 -75 50 -8 0 -2 -12 18 -30 17 -16 29
-34 25 -40 -4 -6 -1 -18 6 -26 11 -13 10 -15 -2 -14 -35 5 -43 0 -23 -15 17
-13 16 -14 -16 -5 -46 13 -50 12 -20 -5 25 -14 25 -14 3 -15 -36 0 -27 -20 10
-20 22 0 28 -3 18 -9 -8 -5 -21 -7 -30 -4 -13 5 -13 3 2 -13 15 -16 19 -17 27
-4 6 9 10 10 10 3 0 -11 -18 -28 -32 -28 -16 0 -20 -15 -4 -15 13 0 16 -5 12
-16 -5 -12 -2 -15 11 -11 44 12 1739 670 1748 678 5 5 16 9 25 9 44 1 43 17
-9 94 -28 42 -56 76 -61 76 -5 0 -12 -11 -16 -25 -8 -33 -26 -28 -30 8 -2 22
2 27 19 28 16 1 18 3 5 6 -10 2 -15 10 -11 19 3 10 0 12 -10 8 -12 -4 -14 -1
-10 17 4 15 3 20 -5 15 -7 -4 -20 -2 -29 3 -10 6 -12 11 -5 11 18 0 15 17 -10
46 -27 30 -65 54 -53 32 5 -7 5 -10 0 -6 -4 4 -15 2 -23 -5 -13 -10 -14 -9 -7
3 14 24 13 49 -2 43 -8 -3 -13 -2 -12 3 4 24 -2 36 -17 30 -11 -4 -18 1 -21
15 -4 13 -11 18 -20 14 -11 -4 -13 -1 -9 11 5 14 1 16 -23 11 -30 -6 -53 7
-29 16 7 2 10 7 7 11 -3 3 -19 -1 -36 -9 -34 -17 -65 -11 -57 10 3 8 1 22 -5
32 -9 16 -10 14 -11 -10 0 -19 -4 -27 -12 -24 -7 2 -12 14 -10 27 3 15 0 20
-8 15 -7 -4 -18 2 -26 14 -20 29 -30 26 -43 -9 -5 -16 -13 -30 -16 -30 -10 0
-2 63 9 80 9 12 8 13 -4 4 -8 -6 -30 -9 -48 -7 -27 2 -35 -1 -39 -17 -4 -13
-14 -20 -30 -20 -13 0 -35 -11 -48 -25 -14 -13 -25 -20 -25 -15 0 13 37 50 50
50 6 0 10 7 10 16 0 9 5 12 11 8 7 -4 10 -1 7 7 -5 14 -48 22 -48 10 0 -4 -18
-26 -40 -50 -38 -41 -41 -42 -57 -25 -17 17 -17 18 0 11 9 -3 17 -3 17 1 0 4
14 15 30 24 37 21 40 48 4 48 -14 0 -23 -4 -19 -10 3 -5 0 -10 -9 -10 -8 0
-21 -3 -30 -6 -11 -4 -16 -1 -16 10 0 9 -3 15 -7 15 -5 -1 -26 -5 -48 -11z
m15 -25 c-1 -11 -26 -43 -34 -43 -10 0 -7 20 7 35 13 16 27 19 27 8z m260 -33
c0 -5 -5 -10 -11 -10 -5 0 -7 5 -4 10 3 6 8 10 11 10 2 0 4 -4 4 -10z m-535
-59 c3 -5 1 -12 -5 -16 -5 -3 -10 1 -10 9 0 18 6 21 15 7z m-45 -11 c0 -5 -5
-10 -11 -10 -5 0 -7 5 -4 10 3 6 8 10 11 10 2 0 4 -4 4 -10z m-240 -244 c0 -3
-4 -8 -10 -11 -5 -3 -10 -1 -10 4 0 6 5 11 10 11 6 0 10 -2 10 -4z m-104 -65
c-10 -16 -36 -13 -43 5 -8 22 18 37 36 20 7 -8 10 -19 7 -25z m1414 -31 c0
-13 -7 -20 -20 -20 -13 0 -20 7 -20 20 0 13 7 20 20 20 13 0 20 -7 20 -20z
m120 -31 c0 -22 4 -30 13 -26 10 4 13 -2 10 -18 -4 -18 -13 -23 -51 -28 -26
-3 -63 -9 -82 -12 -24 -4 -14 3 31 20 60 24 66 29 61 51 -2 13 -9 24 -14 24
-5 0 -6 5 -3 10 14 22 35 10 35 -21z m-1540 11 c0 -5 -5 -10 -11 -10 -5 0 -7
5 -4 10 3 6 8 10 11 10 2 0 4 -4 4 -10z m-37 -94 c8 -20 -20 -43 -35 -28 -14
14 -3 42 16 42 7 0 16 -6 19 -14z m2 -176 c0 -8 -10 -16 -22 -18 -18 -3 -23 2
-23 18 0 16 5 21 23 18 12 -2 22 -10 22 -18z m0 -210 c0 -8 -10 -16 -22 -18
-18 -3 -23 2 -23 18 0 16 5 21 23 18 12 -2 22 -10 22 -18z m43 -123 c4 -20
-25 -34 -40 -19 -15 15 -1 44 19 40 10 -2 19 -11 21 -21z"/>
<path d="M4409 6583 c-13 -16 -12 -17 4 -4 9 7 17 15 17 17 0 8 -8 3 -21 -13z"/>
<path d="M3000 5666 c0 -9 7 -16 16 -16 17 0 14 22 -4 28 -7 2 -12 -3 -12 -12z"/>
<path d="M4207 5292 c-704 -337 -806 -388 -785 -396 13 -6 27 -16 31 -23 6
-10 13 -10 27 -3 25 13 31 13 27 -2 -1 -7 5 -12 14 -10 9 1 27 -8 41 -21 14
-13 31 -21 38 -19 9 3 11 -2 8 -16 -6 -20 -2 -21 35 -18 23 1 48 -1 55 -7 6
-5 12 -6 12 -3 0 4 10 -2 22 -13 11 -11 24 -18 28 -16 4 3 13 -2 20 -10 7 -8
9 -15 6 -15 -4 0 0 -10 8 -22 11 -16 13 -25 4 -35 -7 -9 -7 -13 0 -13 6 0 14
5 17 10 4 6 11 8 16 4 5 -3 7 -9 5 -13 -6 -10 40 -51 56 -51 7 0 21 -11 33
-25 16 -21 32 -27 87 -32 103 -9 333 50 497 128 132 63 175 91 315 203 72 58
136 132 136 158 0 2 -13 3 -29 0 -16 -2 -32 1 -36 8 -4 7 -1 11 6 9 28 -3 38
1 32 16 -3 10 0 15 8 13 10 -2 14 7 12 31 -1 21 2 29 7 22 5 -8 16 -11 30 -6
l22 7 -21 22 c-23 25 -26 36 -10 36 5 0 7 -4 4 -10 -8 -12 5 -13 24 -1 10 7
12 22 8 59 -4 39 -3 52 9 56 20 8 17 21 -8 34 -22 11 -22 11 3 6 15 -3 30 -1
33 4 8 14 -26 24 -49 16 -12 -5 -16 -4 -11 4 4 7 -7 13 -31 17 -63 11 -62 15
3 9 40 -4 64 -2 69 5 4 8 -3 11 -22 10 -15 -1 -39 3 -53 9 -22 10 -19 11 20 7
25 -2 36 -2 25 1 -52 15 -59 44 -10 44 41 0 47 21 13 38 -21 11 -21 11 7 6 25
-4 22 -2 -15 16 -25 13 -40 24 -33 27 7 2 22 -1 33 -7 12 -6 24 -9 28 -6 3 3
1 6 -4 6 -6 0 -19 7 -30 15 -18 15 -18 15 9 9 36 -8 34 2 -5 23 -26 13 -29 18
-15 21 10 2 24 -2 32 -8 12 -10 15 -10 15 0 0 7 8 10 20 7 26 -7 26 9 -1 24
-15 8 -24 8 -32 0 -6 -6 -18 -11 -26 -10 -12 0 -11 2 3 8 11 4 21 17 23 29 1
12 2 22 0 21 -1 -1 -366 -175 -810 -387z m763 203 c10 -12 10 -15 -3 -15 -8 0
-17 7 -21 15 -3 8 -2 15 3 15 5 0 14 -7 21 -15z m-40 -65 c0 -5 -4 -10 -10
-10 -5 0 -10 5 -10 10 0 6 5 10 10 10 6 0 10 -4 10 -10z m-1200 -594 c0 -3 -4
-8 -10 -11 -5 -3 -10 -1 -10 4 0 6 5 11 10 11 6 0 10 -2 10 -4z m88 -29 c4
-20 -25 -34 -40 -19 -15 15 -1 44 19 40 10 -2 19 -11 21 -21z m32 -107 c0 -5
-5 -10 -11 -10 -5 0 -7 5 -4 10 3 6 8 10 11 10 2 0 4 -4 4 -10z m170 0 c0 -5
-5 -10 -11 -10 -5 0 -7 5 -4 10 3 6 8 10 11 10 2 0 4 -4 4 -10z m-80 -20 c0
-13 -7 -20 -20 -20 -13 0 -20 7 -20 20 0 13 7 20 20 20 13 0 20 -7 20 -20z
m250 0 c0 -13 -7 -20 -20 -20 -13 0 -20 7 -20 20 0 13 7 20 20 20 13 0 20 -7
20 -20z"/>
<path d="M3035 5610 c-3 -5 3 -10 14 -10 12 0 21 5 21 10 0 6 -6 10 -14 10 -8
0 -18 -4 -21 -10z"/>
<path d="M3028 5583 c7 -3 16 -2 19 1 4 3 -2 6 -13 5 -11 0 -14 -3 -6 -6z"/>
<path d="M2970 5540 c0 -5 4 -10 9 -10 6 0 13 5 16 10 3 6 -1 10 -9 10 -9 0
-16 -4 -16 -10z"/>
<path d="M2990 5470 c19 -13 30 -13 30 0 0 6 -10 10 -22 10 -19 0 -20 -2 -8
-10z"/>
<path d="M5046 5435 c-3 -9 0 -15 9 -15 16 0 20 16 6 24 -5 3 -11 -1 -15 -9z"/>
<path d="M3376 4834 c-20 -18 -25 -29 -18 -36 7 -7 14 -3 23 13 7 13 19 29 28
36 9 7 12 12 6 12 -5 0 -23 -11 -39 -25z"/>
<path d="M3487 4819 c-8 -11 -16 -16 -18 -10 -3 7 -9 7 -19 1 -13 -8 -13 -12
3 -27 17 -17 18 -17 11 0 -4 11 -2 17 6 15 6 -2 19 7 27 20 9 12 13 22 10 22
-3 0 -12 -9 -20 -21z"/>
<path d="M3577 4753 c-10 -3 -16 -10 -14 -16 6 -20 24 -18 30 3 3 11 4 19 4
19 -1 -1 -10 -3 -20 -6z"/>
<path d="M3480 4735 c-7 -9 -8 -15 -2 -15 5 0 12 7 16 15 3 8 4 15 2 15 -2 0
-9 -7 -16 -15z"/>
<path d="M3505 4727 c-4 -10 -3 -23 4 -30 16 -16 26 0 14 25 -10 21 -11 22
-18 5z"/>
<path d="M3605 4679 c-9 -41 -3 -44 17 -9 13 23 14 30 3 34 -9 3 -16 -6 -20
-25z"/>
<path d="M3675 4697 c-20 -12 -54 -48 -55 -57 0 -6 132 -56 174 -66 22 -5 27
-4 24 7 -3 8 -12 13 -22 11 -9 -2 -16 2 -16 8 0 6 -8 10 -17 8 -12 -2 -18 3
-17 15 2 14 -1 15 -12 6 -15 -13 -19 1 -5 17 6 5 4 16 -4 28 -14 18 -15 18
-26 -8 -7 -14 -16 -26 -22 -26 -5 0 0 16 12 35 21 37 19 42 -14 22z m-15 -47
c0 -5 -5 -10 -11 -10 -5 0 -7 5 -4 10 3 6 8 10 11 10 2 0 4 -4 4 -10z"/>
<path d="M3581 4686 c-7 -8 -9 -21 -5 -27 5 -9 10 -5 16 11 10 28 5 36 -11 16z"/>
</g>
</svg>
